<svg width="2732" height="2732" viewBox="0 0 2732 2732" fill="none" xmlns="http://www.w3.org/2000/svg">
<g clip-path="url(#clip0_76_24)">
<path d="M1065.42 1124.65C993.027 1128.86 934.344 1073.36 934.344 1000.69V439.952C934.344 367.281 993.027 304.956 1065.42 300.745C1137.81 296.533 1196.49 352.03 1196.49 424.701V985.443C1196.49 1058.11 1137.81 1120.44 1065.42 1124.65Z" fill="#FF0000"/>
<path d="M1236.37 1376.36C1163.98 1380.57 1105.3 1325.07 1105.3 1252.4V691.658C1105.3 618.988 1163.98 556.662 1236.37 552.451C1308.76 548.239 1367.44 603.736 1367.44 676.407V956.778V1237.15C1367.44 1309.82 1308.76 1372.14 1236.37 1376.36Z" fill="#FFD600" style="mix-blend-mode:lighten"/>
<path d="M1370.36 1602.02C1297.97 1606.23 1239.29 1550.74 1239.29 1478.06V917.323C1239.29 844.652 1297.97 782.327 1370.36 778.116C1442.75 773.904 1501.43 829.401 1501.43 902.072V1462.81C1501.43 1535.48 1442.75 1597.81 1370.36 1602.02Z" fill="#00FF19" style="mix-blend-mode:lighten"/>
<path d="M1513.59 1836.36C1441.2 1840.57 1382.52 1785.08 1382.52 1712.41V1151.66C1382.52 1078.99 1441.2 1016.67 1513.59 1012.46C1585.98 1008.25 1644.66 1063.74 1644.66 1136.41V1697.16C1644.66 1769.83 1585.98 1832.15 1513.59 1836.36Z" fill="#0085FF" style="mix-blend-mode:lighten"/>
<g filter="url(#filter0_f_76_24)">
<path d="M1065.42 1124.65C993.027 1128.86 934.344 1073.36 934.344 1000.69V439.952C934.344 367.281 993.027 304.956 1065.42 300.745C1137.81 296.533 1196.49 352.03 1196.49 424.701V985.443C1196.49 1058.11 1137.81 1120.44 1065.42 1124.65Z" fill="#FF0000" fill-opacity="0.23"/>
<path d="M1236.37 1376.36C1163.98 1380.57 1105.3 1325.07 1105.3 1252.4V691.658C1105.3 618.988 1163.98 556.662 1236.37 552.451C1308.76 548.239 1367.44 603.736 1367.44 676.407V956.778V1237.15C1367.44 1309.82 1308.76 1372.14 1236.37 1376.36Z" fill="#FFD600" fill-opacity="0.23" style="mix-blend-mode:lighten"/>
<path d="M1370.36 1602.02C1297.97 1606.23 1239.29 1550.74 1239.29 1478.06V917.323C1239.29 844.652 1297.97 782.327 1370.36 778.116C1442.75 773.904 1501.43 829.401 1501.43 902.072V1462.81C1501.43 1535.48 1442.75 1597.81 1370.36 1602.02Z" fill="#00FF19" fill-opacity="0.23" style="mix-blend-mode:lighten"/>
<path d="M1513.59 1836.36C1441.2 1840.57 1382.52 1785.08 1382.52 1712.41V1151.66C1382.52 1078.99 1441.2 1016.67 1513.59 1012.46C1585.98 1008.25 1644.66 1063.74 1644.66 1136.41V1697.16C1644.66 1769.83 1585.98 1832.15 1513.59 1836.36Z" fill="#0085FF" fill-opacity="0.23" style="mix-blend-mode:lighten"/>
</g>
<path d="M715.084 2120.42H611.749L553.525 2008.69C552.476 2006.94 549.678 2002.04 545.132 1994C540.936 1985.96 536.215 1978.26 530.969 1970.92V2120.42H436.552V1821.43H530.969V1957.28C536.914 1950.64 541.985 1943.47 546.181 1935.78C550.727 1927.73 553.35 1923.01 554.049 1921.61L610.176 1821.43H709.839L650.041 1921.61C648.992 1923.01 646.719 1926.68 643.222 1932.63C639.725 1938.57 635.878 1944.17 631.682 1949.41C627.835 1954.31 623.639 1958.86 619.093 1963.05C625.387 1969 630.458 1974.94 634.305 1980.89C638.501 1986.48 643.222 1994 648.467 2003.44L715.084 2120.42ZM877.259 2120.42L868.866 2087.37C852.78 2113.6 830.399 2126.71 801.724 2126.71C778.295 2126.71 759.061 2120.24 744.024 2107.3C729.337 2094.01 721.994 2075.48 721.994 2051.7C721.994 2037.01 726.19 2024.25 734.583 2013.41C743.325 2002.22 755.215 1994.35 770.252 1989.8C789.835 1984.21 820.083 1981.06 860.998 1980.36C860.998 1957.28 859.949 1945.04 857.851 1943.64C856.102 1942.25 850.507 1941.55 841.065 1941.55C835.12 1941.55 826.902 1941.9 816.412 1942.6C799.626 1943.3 776.896 1945.22 748.221 1948.37C745.423 1929.48 743.325 1909.2 741.926 1887.52C760.46 1883.67 779.868 1880.52 800.151 1878.08C820.433 1875.28 838.617 1873.88 854.703 1873.88C882.679 1873.88 903.661 1878.6 917.649 1888.04C931.636 1897.14 940.728 1909.2 944.925 1924.24C949.121 1939.27 951.044 1958.33 950.695 1981.41L950.17 2058.52L951.744 2120.42H877.259ZM832.148 2067.96C841.24 2067.96 850.857 2066.21 860.998 2062.72V2023.9H856.801C830.924 2023.9 816.586 2025.3 813.789 2028.1C812.04 2029.84 810.642 2032.47 809.592 2035.96C808.893 2039.46 808.543 2042.78 808.543 2045.93C808.543 2054.32 810.467 2060.09 814.313 2063.24C818.16 2066.39 824.105 2067.96 832.148 2067.96ZM1368.34 1895.91C1373.94 1904.3 1376.74 1936.83 1376.74 1993.48V2120.42H1287.04V2002.39V1974.07C1287.04 1961.13 1285.81 1953.44 1283.37 1950.99C1280.57 1948.19 1274.62 1946.79 1265.53 1946.79L1259.24 1947.32C1248.4 1948.02 1238.08 1950.46 1228.29 1954.66C1228.64 1962 1228.81 1974.94 1228.81 1993.48V2120.42H1139.12V2002.39V1970.92C1139.12 1960.08 1137.89 1953.44 1135.44 1950.99C1132.65 1948.19 1126.7 1946.79 1117.61 1946.79L1111.32 1947.32C1101.52 1947.67 1091.38 1949.94 1080.89 1954.14V2120.42H991.195V1879.13H1064.11L1073.55 1918.47C1085.09 1903.08 1098.38 1891.89 1113.41 1884.9C1128.45 1877.55 1143.66 1873.88 1159.05 1873.88C1171.99 1873.88 1184.23 1875.8 1195.77 1879.65C1207.66 1883.5 1215.87 1888.92 1220.42 1895.91C1222.52 1899.06 1224.27 1904.83 1225.67 1913.22C1236.86 1899.58 1249.62 1889.62 1263.96 1883.32C1278.3 1877.03 1292.63 1873.88 1306.97 1873.88C1319.91 1873.88 1332.15 1875.8 1343.69 1879.65C1355.58 1883.5 1363.8 1888.92 1368.34 1895.91ZM1562.14 2120.42L1553.74 2087.37C1537.66 2113.6 1515.28 2126.71 1486.6 2126.71C1463.17 2126.71 1443.94 2120.24 1428.9 2107.3C1414.22 2094.01 1406.87 2075.48 1406.87 2051.7C1406.87 2037.01 1411.07 2024.25 1419.46 2013.41C1428.2 2002.22 1440.09 1994.35 1455.13 1989.8C1474.71 1984.21 1504.96 1981.06 1545.88 1980.36C1545.88 1957.28 1544.83 1945.04 1542.73 1943.64C1540.98 1942.25 1535.39 1941.55 1525.94 1941.55C1520 1941.55 1511.78 1941.9 1501.29 1942.6C1484.5 1943.3 1461.77 1945.22 1433.1 1948.37C1430.3 1929.48 1428.2 1909.2 1426.8 1887.52C1445.34 1883.67 1464.75 1880.52 1485.03 1878.08C1505.31 1875.28 1523.5 1873.88 1539.58 1873.88C1567.56 1873.88 1588.54 1878.6 1602.53 1888.04C1616.51 1897.14 1625.61 1909.2 1629.8 1924.24C1634 1939.27 1635.92 1958.33 1635.57 1981.41L1635.05 2058.52L1636.62 2120.42H1562.14ZM1517.03 2067.96C1526.12 2067.96 1535.73 2066.21 1545.88 2062.72V2023.9H1541.68C1515.8 2023.9 1501.46 2025.3 1498.67 2028.1C1496.92 2029.84 1495.52 2032.47 1494.47 2035.96C1493.77 2039.46 1493.42 2042.78 1493.42 2045.93C1493.42 2054.32 1495.34 2060.09 1499.19 2063.24C1503.04 2066.39 1508.98 2067.96 1517.03 2067.96ZM1677.65 1805.69L1767.34 1802.02V2120.42H1677.65V1805.69ZM1955.54 2120.42L1947.15 2087.37C1931.07 2113.6 1908.69 2126.71 1880.01 2126.71C1856.58 2126.71 1837.35 2120.24 1822.31 2107.3C1807.62 2094.01 1800.28 2075.48 1800.28 2051.7C1800.28 2037.01 1804.48 2024.25 1812.87 2013.41C1821.61 2002.22 1833.5 1994.35 1848.54 1989.8C1868.12 1984.21 1898.37 1981.06 1939.28 1980.36C1939.28 1957.28 1938.23 1945.04 1936.14 1943.64C1934.39 1942.25 1928.79 1941.55 1919.35 1941.55C1913.41 1941.55 1905.19 1941.9 1894.7 1942.6C1877.91 1943.3 1855.18 1945.22 1826.51 1948.37C1823.71 1929.48 1821.61 1909.2 1820.21 1887.52C1838.75 1883.67 1858.15 1880.52 1878.44 1878.08C1898.72 1875.28 1916.9 1873.88 1932.99 1873.88C1960.96 1873.88 1981.95 1878.6 1995.93 1888.04C2009.92 1897.14 2019.01 1909.2 2023.21 1924.24C2027.41 1939.27 2029.33 1958.33 2028.98 1981.41L2028.46 2058.52L2030.03 2120.42H1955.54ZM1910.43 2067.96C1919.53 2067.96 1929.14 2066.21 1939.28 2062.72V2023.9H1935.09C1909.21 2023.9 1894.87 2025.3 1892.07 2028.1C1890.33 2029.84 1888.93 2032.47 1887.88 2035.96C1887.18 2039.46 1886.83 2042.78 1886.83 2045.93C1886.83 2054.32 1888.75 2060.09 1892.6 2063.24C1896.45 2066.39 1902.39 2067.96 1910.43 2067.96ZM2325.98 2120.42H2228.42L2178.59 2022.33C2173.69 2012.19 2167.22 2005.72 2159.18 2002.92V2120.42H2069.48V1805.69L2159.18 1802.02V1980.89C2167.57 1977.39 2174.74 1970.22 2180.68 1959.38L2225.27 1879.13L2323.36 1878.6L2272.48 1960.43C2264.44 1973.37 2255.69 1983.68 2246.25 1991.38C2254.3 2000.12 2263.39 2013.41 2273.53 2031.24L2325.98 2120.42Z" fill="white"/>
</g>
<defs>
<filter id="filter0_f_76_24" x="491.76" y="-142.064" width="1595.49" height="2421.23" filterUnits="userSpaceOnUse" color-interpolation-filters="sRGB">
<feFlood flood-opacity="0" result="BackgroundImageFix"/>
<feBlend mode="normal" in="SourceGraphic" in2="BackgroundImageFix" result="shape"/>
<feGaussianBlur stdDeviation="221.292" result="effect1_foregroundBlur_76_24"/>
</filter>
<clipPath id="clip0_76_24">
<rect width="2732" height="2732" fill="white"/>
</clipPath>
</defs>
</svg>
